<svg xmlns="http://www.w3.org/2000/svg" xmlns:xlink="http://www.w3.org/1999/xlink" width="320" zoomAndPan="magnify" viewBox="0 0 240 60" height="80" preserveAspectRatio="xMidYMid meet" version="1.0"><defs><clipPath id="994845a2c2"><path d="M 234 30.644531 L 240 30.644531 L 240 34 L 234 34 Z M 234 30.644531 " clip-rule="nonzero"/></clipPath><clipPath id="74a6265d54"><path d="M 234.414062 29.195312 L 252.339844 30.929688 L 251.90625 35.414062 L 233.976562 33.675781 Z M 234.414062 29.195312 " clip-rule="nonzero"/></clipPath><clipPath id="c4caf17b6a"><path d="M 251.949219 35.195312 L 234.023438 33.457031 L 234.457031 28.976562 L 252.382812 30.710938 Z M 251.949219 35.195312 " clip-rule="nonzero"/></clipPath></defs><path fill="#bd6365" d="M 4.515625 45.75 C 6.179688 46.539062 7.980469 46.839844 9.808594 46.675781 C 12.996094 46.429688 15.972656 45.480469 18.859375 44.140625 C 21.671875 42.859375 24.179688 41.113281 26.550781 39.125 C 26.714844 38.988281 26.851562 38.851562 27.125 38.878906 C 28.324219 39.042969 29.550781 38.988281 30.75 38.90625 C 35.058594 38.605469 38.167969 36.207031 40.949219 33.234375 C 41.140625 33.015625 41.003906 32.90625 40.789062 32.851562 C 40.488281 32.824219 40.242188 33.234375 40.023438 33.394531 C 36.941406 36.175781 34.488281 37.789062 30.367188 38.195312 C 29.496094 38.28125 28.597656 38.386719 27.617188 38.195312 C 27.78125 38.058594 27.890625 37.976562 27.96875 37.898438 C 40.433594 26.523438 43.785156 9.78125 35.742188 8.144531 C 28.679688 6.917969 18.316406 19.542969 14.089844 26.277344 C 14.035156 26.089844 14.117188 25.980469 14.171875 25.871094 C 15.890625 21.75 17.90625 17.769531 20.308594 14.007812 C 22.023438 11.25 23.933594 8.6875 26.277344 6.425781 C 27.207031 5.550781 28.1875 4.789062 29.332031 4.269531 C 29.550781 4.160156 29.742188 4.109375 29.90625 4.378906 C 30.042969 4.597656 30.289062 4.707031 30.535156 4.570312 C 30.75 4.460938 30.996094 4.324219 31.023438 4.023438 C 31.023438 3.699219 30.75 3.589844 30.503906 3.507812 C 30.367188 3.480469 30.207031 3.425781 30.070312 3.425781 C 29.386719 3.371094 28.734375 3.480469 28.105469 3.753906 C 27.097656 4.160156 26.195312 4.789062 25.40625 5.5 C 22.488281 8.089844 20.144531 11.171875 18.097656 14.472656 C 14.878906 19.625 12.453125 25.160156 10.488281 30.914062 C 10.378906 31.269531 10.242188 31.351562 9.859375 31.351562 C 7.109375 31.1875 4.488281 31.679688 2.171875 33.234375 C -2.054688 35.988281 -0.664062 43.269531 4.515625 45.75 Z M 12.945312 31.597656 C 18.453125 20.035156 28.597656 8.308594 34.40625 8.878906 C 36.175781 9.070312 37.242188 10.132812 37.789062 12.125 C 38.035156 13.109375 38.085938 14.117188 38.085938 15.125 C 38.035156 19.078125 36.886719 22.761719 35.089844 26.253906 C 32.824219 30.585938 29.769531 34.324219 26.195312 37.652344 C 25.953125 37.871094 25.761719 37.898438 25.433594 37.8125 C 22.789062 37.105469 20.417969 35.796875 18.042969 34.515625 C 16.378906 33.640625 14.796875 32.605469 13.023438 32.03125 C 12.640625 31.925781 12.886719 31.734375 12.945312 31.597656 Z M 3.972656 33.316406 C 5.6875 32.386719 7.542969 31.980469 9.507812 32.113281 C 10.078125 32.167969 10.078125 32.167969 9.917969 32.6875 C 9.34375 34.542969 8.773438 36.34375 8.441406 38.25 C 8.308594 39.042969 8.199219 39.832031 8.117188 40.652344 C 8.0625 40.894531 8.0625 41.140625 8.417969 41.195312 C 8.742188 41.277344 9.015625 41.277344 9.234375 40.925781 C 9.617188 40.296875 9.78125 39.558594 9.996094 38.851562 C 10.625 36.914062 11.335938 35.03125 12.179688 33.179688 C 12.316406 32.851562 12.453125 32.824219 12.75 32.960938 C 14.308594 33.613281 15.753906 34.515625 17.253906 35.277344 C 18.507812 35.90625 19.789062 36.558594 21.070312 37.132812 C 22.351562 37.734375 23.714844 38.113281 25.132812 38.550781 C 20.632812 42.453125 15.644531 45.3125 9.671875 45.941406 C 1.789062 46.8125 -2.054688 36.449219 3.972656 33.316406 Z M 3.972656 33.316406 " fill-opacity="1" fill-rule="nonzero"/><path fill="#bd6365" d="M 37.675781 46.296875 C 38.332031 46.351562 39.667969 45.777344 40.210938 45.207031 C 40.296875 45.125 40.484375 45.015625 40.347656 44.878906 C 40.210938 44.714844 40.050781 44.796875 39.941406 44.90625 C 39.503906 45.285156 39.011719 45.53125 38.496094 45.75 C 37.210938 46.324219 36.476562 45.832031 36.503906 44.414062 C 36.503906 43.460938 36.832031 42.558594 37.238281 41.6875 C 38.058594 39.941406 39.148438 38.386719 40.1875 36.804688 C 40.539062 36.234375 40.867188 35.660156 41.058594 35.007812 C 41.167969 34.652344 41.304688 34.1875 41.03125 33.941406 C 40.457031 33.371094 40.757812 32.988281 41.222656 32.578125 C 41.332031 32.496094 41.382812 32.335938 41.441406 32.167969 C 41.492188 32.003906 41.492188 31.84375 41.359375 31.734375 C 41.085938 31.40625 40.730469 31.242188 40.296875 31.324219 C 39.777344 31.433594 39.394531 31.734375 39.257812 32.277344 C 39.148438 32.714844 39.285156 33.179688 39.640625 33.421875 C 39.941406 33.613281 39.964844 33.832031 39.914062 34.105469 C 39.855469 34.625 39.667969 35.085938 39.394531 35.523438 C 38.957031 36.234375 38.523438 36.941406 38.085938 37.625 C 37.292969 38.851562 36.558594 40.078125 36.039062 41.414062 C 35.632812 42.558594 35.46875 43.707031 35.847656 44.90625 C 36.09375 45.667969 36.886719 46.269531 37.675781 46.296875 Z M 37.675781 46.296875 " fill-opacity="1" fill-rule="nonzero"/><path fill="#bd6365" d="M 48.804688 36.777344 C 48.855469 37.351562 48.941406 37.921875 49.210938 38.441406 C 50.136719 40.1875 51.992188 40.570312 53.546875 39.914062 C 56.683594 38.578125 62.574219 33.421875 65.957031 33.015625 C 65.929688 32.90625 65.929688 32.851562 65.902344 32.824219 C 64.976562 31.789062 56.601562 37.542969 53.847656 38.878906 C 53.136719 39.230469 52.429688 39.535156 51.613281 39.535156 C 51.203125 39.503906 50.929688 39.339844 50.765625 38.960938 C 50.601562 38.578125 50.519531 38.167969 50.519531 37.734375 C 50.492188 36.753906 50.683594 35.824219 51.066406 34.894531 C 51.367188 34.132812 51.832031 33.453125 52.238281 32.742188 C 52.539062 32.167969 52.484375 31.980469 51.910156 31.707031 C 51.746094 31.621094 51.585938 31.515625 51.421875 31.570312 C 51.121094 31.679688 50.957031 31.515625 50.738281 31.378906 C 49.921875 30.914062 49.101562 30.808594 48.285156 31.324219 C 46.320312 32.550781 45.421875 34.40625 45.476562 36.667969 C 45.476562 37.433594 46.347656 37.871094 47.058594 37.542969 C 47.328125 37.40625 47.574219 37.214844 47.765625 36.996094 C 48.066406 36.722656 48.367188 36.421875 48.695312 36.097656 C 48.804688 36.371094 48.777344 36.585938 48.804688 36.777344 Z M 47.277344 36.449219 C 47.082031 36.617188 46.867188 36.753906 46.566406 36.96875 C 46.566406 36.371094 46.675781 35.933594 46.839844 35.550781 C 47.328125 34.296875 48.039062 33.234375 49.074219 32.359375 C 49.265625 32.199219 49.511719 32.089844 49.730469 31.953125 C 49.863281 31.867188 50.058594 31.84375 50.167969 32.03125 C 50.273438 32.199219 50.382812 32.335938 50.246094 32.550781 C 49.375 33.941406 48.53125 35.359375 47.277344 36.449219 Z M 47.277344 36.449219 " fill-opacity="1" fill-rule="nonzero"/><path fill="#bd6365" d="M 66.527344 41.25 C 66.664062 41.386719 66.828125 41.550781 67.046875 41.414062 C 67.289062 41.304688 67.425781 41.113281 67.457031 40.867188 C 67.484375 40.621094 67.320312 40.351562 67.046875 40.078125 C 66.773438 39.804688 66.472656 39.832031 66.253906 40.1875 C 66.035156 40.515625 66.144531 40.925781 66.527344 41.25 Z M 66.527344 41.25 " fill-opacity="1" fill-rule="nonzero"/><path fill="#bd6365" d="M 83.246094 47.414062 C 84.363281 48.996094 86.378906 49.679688 88.234375 49.078125 C 93.714844 47.359375 99.523438 36.941406 105.90625 37.378906 C 106.097656 37.351562 106.097656 37.242188 105.960938 37.132812 C 105.824219 37.023438 105.660156 36.996094 105.496094 36.96875 C 99.386719 36.585938 92.296875 47.386719 86.925781 48.53125 C 85.78125 48.75 84.988281 48.421875 84.363281 47.46875 C 83.953125 46.871094 83.625 46.214844 83.433594 45.503906 C 83.054688 44.167969 82.972656 42.777344 82.945312 40.953125 C 82.972656 38.714844 83.433594 36.097656 84.226562 33.53125 C 85.671875 28.898438 87.878906 24.617188 90.414062 20.496094 C 92.542969 17.035156 94.945312 13.789062 98.023438 11.117188 C 99.523438 9.808594 101.136719 8.636719 102.988281 7.925781 C 105.445312 6.96875 107.050781 7.761719 107.84375 10.242188 C 108.414062 12.125 108.308594 13.980469 107.679688 15.78125 C 105.960938 20.660156 102.824219 24.398438 98.21875 26.824219 C 97.34375 27.3125 96.390625 27.558594 95.378906 27.671875 C 94.835938 27.722656 94.453125 27.480469 94.152344 27.070312 C 94.070312 26.960938 93.988281 26.824219 93.933594 26.714844 C 93.742188 26.46875 93.46875 26.226562 93.199219 26.390625 C 92.898438 26.605469 93.144531 26.933594 93.308594 27.152344 C 93.910156 27.941406 94.699219 28.378906 95.679688 28.40625 C 96.960938 28.433594 98.132812 28.078125 99.226562 27.480469 C 103.34375 25.242188 106.371094 21.945312 108.386719 17.714844 C 109.34375 15.726562 109.804688 13.597656 109.371094 11.335938 C 108.90625 8.988281 107.652344 7.378906 105.199219 6.863281 C 103.617188 6.535156 102.195312 6.96875 100.804688 7.707031 C 98.191406 9.097656 95.980469 11.0625 94.097656 13.324219 C 89.707031 18.585938 86.300781 24.453125 83.789062 30.832031 C 82.234375 34.761719 81.390625 38.824219 81.796875 43.105469 C 81.933594 44.660156 82.34375 46.132812 83.246094 47.414062 Z M 83.246094 47.414062 " fill-opacity="1" fill-rule="nonzero"/><path fill="#bd6365" d="M 111.195312 36.777344 C 111.25 37.351562 111.332031 37.921875 111.605469 38.441406 C 112.53125 40.1875 114.386719 40.570312 115.941406 39.914062 C 119.078125 38.578125 124.96875 33.421875 128.351562 33.015625 C 128.320312 32.90625 128.320312 32.851562 128.292969 32.824219 C 127.367188 31.789062 118.996094 37.542969 116.242188 38.878906 C 115.53125 39.230469 114.824219 39.535156 114.003906 39.535156 C 113.59375 39.503906 113.324219 39.339844 113.160156 38.960938 C 112.996094 38.578125 112.914062 38.167969 112.914062 37.734375 C 112.886719 36.753906 113.078125 35.824219 113.460938 34.894531 C 113.757812 34.132812 114.222656 33.453125 114.632812 32.742188 C 114.933594 32.167969 114.875 31.980469 114.304688 31.707031 C 114.140625 31.621094 113.976562 31.515625 113.816406 31.570312 C 113.515625 31.679688 113.351562 31.515625 113.132812 31.378906 C 112.316406 30.914062 111.496094 30.808594 110.679688 31.324219 C 108.714844 32.550781 107.8125 34.40625 107.871094 36.667969 C 107.871094 37.433594 108.742188 37.871094 109.449219 37.542969 C 109.722656 37.40625 109.96875 37.214844 110.160156 36.996094 C 110.457031 36.722656 110.761719 36.421875 111.085938 36.097656 C 111.195312 36.371094 111.167969 36.585938 111.195312 36.777344 Z M 109.667969 36.449219 C 109.476562 36.617188 109.261719 36.753906 108.960938 36.96875 C 108.960938 36.371094 109.066406 35.933594 109.234375 35.550781 C 109.722656 34.296875 110.433594 33.234375 111.46875 32.359375 C 111.660156 32.199219 111.90625 32.089844 112.121094 31.953125 C 112.257812 31.867188 112.449219 31.84375 112.558594 32.03125 C 112.667969 32.199219 112.777344 32.335938 112.640625 32.550781 C 111.769531 33.941406 110.921875 35.359375 109.667969 36.449219 Z M 109.667969 36.449219 " fill-opacity="1" fill-rule="nonzero"/><path fill="#bd6365" d="M 136.011719 29.632812 C 133.3125 27.941406 127.503906 37.378906 127.449219 37.351562 C 128.785156 33.453125 131.292969 30.015625 131.429688 29.769531 C 131.648438 29.359375 131.8125 29.171875 131.457031 28.871094 C 131.105469 28.570312 130.910156 28.570312 130.476562 28.816406 C 130.3125 28.898438 130.175781 29.035156 130.039062 29.171875 C 129.410156 29.769531 128.921875 30.476562 128.539062 31.269531 C 127.503906 33.285156 126.628906 35.386719 126.058594 37.597656 C 125.894531 38.167969 126.003906 38.167969 125.296875 38.195312 C 125.023438 38.195312 124.75 38.28125 124.476562 38.304688 C 123.523438 38.496094 123.304688 39.425781 123.875 40.160156 C 124.09375 40.433594 124.339844 40.679688 124.640625 40.839844 C 124.828125 40.953125 124.828125 41.085938 124.722656 41.25 C 124.667969 41.359375 124.613281 41.46875 124.53125 41.578125 C 123.328125 43.707031 122.074219 45.804688 120.957031 47.988281 C 120.140625 49.515625 119.484375 51.09375 118.882812 52.730469 C 118.667969 53.386719 118.503906 54.070312 118.476562 54.777344 C 118.449219 55.269531 118.75 55.597656 119.128906 55.871094 C 119.484375 56.113281 119.839844 56.003906 120.167969 55.785156 C 120.386719 55.648438 120.546875 55.515625 120.742188 55.351562 C 121.449219 54.695312 121.96875 53.851562 122.484375 53.03125 C 123.464844 51.476562 124.230469 49.8125 124.777344 48.066406 C 125.484375 45.886719 126.113281 43.679688 126.796875 41.46875 C 126.875 41.222656 126.984375 41.085938 127.257812 41.03125 C 128.539062 40.789062 129.714844 40.214844 130.832031 39.503906 C 131.074219 39.339844 131.320312 39.230469 131.59375 39.203125 C 132.058594 39.179688 132.523438 39.125 132.984375 39.042969 C 137.675781 38.359375 139.421875 36.667969 143.539062 33.285156 C 143.894531 32.988281 143.730469 32.769531 143.457031 32.90625 C 142.910156 33.207031 137.703125 38.25 132.601562 38.25 C 132.65625 38.007812 132.792969 37.898438 132.929688 37.761719 C 133.777344 36.914062 134.59375 36.015625 135.328125 35.058594 C 136.121094 34.050781 136.746094 32.90625 137.101562 31.652344 C 137.402344 30.585938 136.882812 30.179688 136.011719 29.632812 Z M 135.765625 30.289062 C 135.574219 31.324219 135.082031 32.140625 134.566406 32.933594 C 133.558594 34.515625 132.410156 36.015625 131.128906 37.378906 C 130.09375 38.496094 129.546875 38.6875 128.078125 38.332031 C 127.859375 38.304688 127.777344 38.195312 127.859375 38.007812 C 127.941406 37.8125 128.019531 37.597656 128.128906 37.433594 C 128.265625 37.242188 131.15625 33.070312 134.375 30.914062 C 134.785156 30.671875 135.167969 30.34375 135.765625 30.289062 Z M 119.292969 54.75 C 119.324219 54.207031 119.511719 53.660156 119.675781 53.140625 C 120.304688 51.230469 121.121094 49.40625 122.023438 47.632812 C 122.703125 46.269531 123.464844 44.960938 124.203125 43.625 C 124.285156 43.460938 124.914062 41.90625 125.402344 41.195312 C 124.914062 42.941406 123.003906 51.257812 120.140625 54.207031 C 120.058594 54.257812 119.511719 54.832031 119.292969 54.75 Z M 125.566406 39.125 C 125.648438 39.398438 125.566406 39.558594 125.511719 39.722656 C 125.347656 40.296875 125.238281 40.484375 124.695312 40.378906 C 124.53125 40.351562 124.257812 40.023438 124.203125 39.832031 C 124.148438 39.613281 124.121094 39.398438 124.285156 39.261719 C 124.585938 39.042969 125.183594 39.152344 125.566406 39.125 Z M 127.339844 39.804688 C 127.476562 39.042969 127.558594 39.015625 128.429688 39.316406 C 128.101562 39.585938 127.777344 39.671875 127.339844 39.804688 Z M 127.339844 39.804688 " fill-opacity="1" fill-rule="nonzero"/><path fill="#bd6365" d="M 145.609375 31.078125 C 145.253906 30.777344 144.957031 30.777344 144.601562 31.105469 C 144.464844 31.242188 144.328125 31.378906 144.195312 31.515625 C 142.53125 33.75 141.21875 36.125 140.945312 38.960938 C 140.835938 39.695312 140.863281 40.433594 141.03125 41.167969 C 141.167969 41.742188 141.410156 42.316406 141.792969 42.804688 C 142.558594 43.707031 143.402344 43.8125 144.382812 43.1875 C 144.546875 43.078125 144.710938 42.914062 144.875 42.777344 C 146.265625 41.605469 147.492188 40.269531 148.746094 38.960938 C 150.273438 37.351562 151.9375 35.988281 153.957031 35.007812 C 155.101562 34.460938 156.191406 33.859375 157.390625 33.421875 C 157.5 33.394531 157.609375 33.371094 157.582031 33.234375 C 157.582031 33.125 157.472656 33.070312 157.367188 33.070312 C 157.144531 33.042969 156.984375 33.125 156.820312 33.207031 C 156.191406 33.480469 155.566406 33.75 154.964844 34.050781 C 153.765625 34.625 152.511719 35.140625 151.363281 35.878906 C 149.699219 36.886719 148.28125 38.222656 146.945312 39.640625 C 146.183594 40.40625 145.5 41.25 144.601562 41.851562 C 144.085938 42.207031 143.59375 42.558594 142.9375 42.589844 C 142.449219 42.613281 142.3125 42.503906 142.203125 42.042969 C 142.066406 41.46875 142.066406 40.894531 142.121094 40.324219 C 142.335938 38.195312 143.15625 36.261719 144.246094 34.433594 C 144.738281 33.613281 145.253906 32.878906 145.746094 32.089844 C 145.992188 31.679688 145.9375 31.351562 145.609375 31.078125 Z M 146.867188 29.742188 C 147.113281 29.824219 147.273438 29.660156 147.246094 29.417969 C 147.246094 29.007812 146.78125 28.597656 146.320312 28.542969 C 146.074219 28.515625 145.9375 28.679688 146.019531 28.925781 C 146.15625 29.332031 146.484375 29.605469 146.867188 29.742188 Z M 146.867188 29.742188 " fill-opacity="1" fill-rule="nonzero"/><path fill="#bd6365" d="M 160.417969 40.40625 C 160.335938 40.597656 160.171875 40.816406 160.363281 41.003906 C 160.554688 41.222656 160.800781 41.167969 161.074219 41.113281 C 161.261719 41.085938 161.398438 40.953125 161.507812 40.816406 C 161.945312 40.269531 162.378906 39.75 162.601562 39.09375 C 162.683594 38.851562 162.847656 38.660156 163.007812 38.46875 C 164.347656 37.1875 165.679688 35.90625 167.207031 34.816406 C 167.316406 34.734375 167.507812 34.679688 167.425781 34.488281 C 167.34375 34.324219 167.128906 34.324219 166.960938 34.378906 C 166.800781 34.460938 166.636719 34.542969 166.472656 34.652344 C 165.875 35.03125 165.296875 35.46875 164.753906 35.933594 C 164.179688 36.421875 163.609375 36.914062 162.980469 37.460938 C 162.378906 36.289062 161.753906 35.960938 160.5 36.097656 C 160.308594 36.097656 160.117188 36.152344 159.929688 36.175781 C 159.597656 36.289062 159.300781 36.371094 158.972656 36.480469 C 158.507812 36.617188 158.046875 36.777344 157.582031 36.914062 C 157.199219 36.996094 157.117188 36.886719 157.089844 36.53125 C 157.089844 36.175781 157.171875 35.851562 157.28125 35.550781 C 157.664062 34.542969 158.128906 33.589844 158.753906 32.742188 C 159.328125 31.980469 159.929688 31.269531 160.828125 30.832031 C 161.429688 30.5625 161.699219 30.640625 162.027344 31.214844 C 162.21875 31.597656 162.246094 32.003906 162.191406 32.441406 C 162.136719 32.90625 162.410156 33.152344 162.820312 33.070312 C 163.089844 33.015625 163.199219 32.796875 163.226562 32.578125 C 163.417969 31.269531 163.117188 30.316406 161.617188 29.960938 C 160.746094 29.769531 159.898438 29.960938 159.136719 30.398438 C 158.402344 30.832031 157.800781 31.433594 157.28125 32.113281 C 156.519531 33.179688 155.945312 34.324219 155.5625 35.550781 C 155.265625 36.585938 155.699219 37.296875 156.738281 37.542969 C 156.789062 37.542969 156.875 37.542969 156.925781 37.566406 C 157.609375 37.703125 158.265625 37.566406 158.917969 37.351562 C 159.546875 37.132812 160.199219 36.96875 160.882812 36.804688 C 161.125 36.753906 161.320312 36.832031 161.457031 37.078125 C 161.835938 37.703125 161.753906 38.6875 161.210938 39.203125 C 160.828125 39.558594 160.582031 39.941406 160.417969 40.40625 Z M 160.417969 40.40625 " fill-opacity="1" fill-rule="nonzero"/><path fill="#bd6365" d="M 181.933594 33.316406 C 181.691406 33.042969 181.472656 33.125 181.25 33.207031 C 180.898438 33.371094 180.542969 33.53125 180.214844 33.75 C 178.117188 35.117188 176.042969 36.507812 174.023438 38.035156 C 172.609375 39.125 171.21875 40.296875 169.554688 41.0625 C 168.382812 41.578125 167.507812 41.0625 167.371094 39.777344 C 167.34375 39.503906 167.34375 39.230469 167.371094 38.960938 C 167.589844 36.996094 168 35.058594 168.734375 33.257812 C 171.679688 26.117188 175.390625 19.433594 179.671875 13.023438 C 179.890625 12.726562 180.105469 12.699219 180.40625 12.753906 C 181.90625 13.050781 183.378906 13.351562 184.851562 13.625 C 189.300781 14.414062 193.742188 15.042969 198.242188 14.363281 C 199.660156 14.167969 201.160156 14.03125 202.0625 12.640625 C 202.113281 12.507812 202.359375 12.453125 202.226562 12.261719 C 202.113281 12.125 201.925781 12.152344 201.789062 12.207031 C 201.542969 12.289062 201.324219 12.425781 201.1875 12.640625 C 201.050781 12.863281 200.886719 13.023438 200.671875 13.109375 C 200.070312 13.269531 199.523438 13.515625 198.925781 13.597656 C 196.660156 13.980469 194.398438 14.089844 192.132812 14.007812 C 188.234375 13.871094 184.472656 13.050781 180.679688 12.316406 C 180.269531 12.207031 180.324219 12.070312 180.515625 11.796875 C 181.089844 10.980469 181.691406 10.132812 182.261719 9.289062 C 182.398438 9.070312 182.644531 8.824219 182.425781 8.554688 C 182.234375 8.308594 181.90625 8.226562 181.582031 8.253906 C 181.25 8.308594 181.0625 8.527344 180.871094 8.742188 C 180.164062 9.617188 179.507812 10.542969 178.910156 11.472656 C 178.714844 11.769531 178.527344 11.828125 178.199219 11.769531 C 176.890625 11.496094 175.609375 11.25 174.324219 11.035156 C 170.589844 10.40625 166.855469 10.191406 163.089844 10.679688 C 161.371094 10.898438 159.683594 11.28125 158.125 12.070312 C 157.582031 12.371094 157.0625 12.671875 156.789062 13.269531 C 156.570312 13.652344 156.765625 13.980469 157.253906 14.144531 C 157.527344 14.226562 157.910156 14.414062 157.800781 13.789062 C 157.773438 13.707031 157.9375 13.597656 158.046875 13.488281 C 158.5625 12.996094 159.191406 12.671875 159.871094 12.453125 C 160.800781 12.125 161.78125 11.851562 162.761719 11.691406 C 167.835938 10.898438 172.878906 11.335938 177.898438 12.289062 C 178.417969 12.371094 178.144531 12.589844 178.035156 12.808594 C 177.214844 14.0625 176.425781 15.316406 175.636719 16.570312 C 172.878906 20.933594 170.152344 25.351562 168.191406 30.152344 C 167.070312 32.851562 166.363281 35.6875 166.253906 38.632812 C 166.171875 41.0625 168.078125 42.316406 170.289062 41.25 C 171.054688 40.867188 171.789062 40.40625 172.5 39.914062 C 175.636719 37.734375 178.605469 35.25 181.933594 33.316406 Z M 181.933594 33.316406 " fill-opacity="1" fill-rule="nonzero"/><path fill="#bd6365" d="M 179.234375 46.296875 C 179.886719 46.351562 181.226562 45.777344 181.769531 45.207031 C 181.851562 45.125 182.042969 45.015625 181.90625 44.878906 C 181.769531 44.714844 181.605469 44.796875 181.496094 44.90625 C 181.0625 45.285156 180.570312 45.53125 180.054688 45.75 C 178.769531 46.324219 178.035156 45.832031 178.0625 44.414062 C 178.0625 43.460938 178.390625 42.558594 178.796875 41.6875 C 179.613281 39.941406 180.707031 38.386719 181.742188 36.804688 C 182.097656 36.234375 182.425781 35.660156 182.617188 35.007812 C 182.726562 34.652344 182.863281 34.1875 182.589844 33.941406 C 182.015625 33.371094 182.316406 32.988281 182.777344 32.578125 C 182.886719 32.496094 182.941406 32.335938 182.996094 32.167969 C 183.050781 32.003906 183.050781 31.84375 182.914062 31.734375 C 182.640625 31.40625 182.289062 31.242188 181.851562 31.324219 C 181.335938 31.433594 180.953125 31.734375 180.816406 32.277344 C 180.707031 32.714844 180.84375 33.179688 181.199219 33.421875 C 181.496094 33.613281 181.523438 33.832031 181.472656 34.105469 C 181.414062 34.625 181.226562 35.085938 180.953125 35.523438 C 180.515625 36.234375 180.082031 36.941406 179.644531 37.625 C 178.851562 38.851562 178.117188 40.078125 177.597656 41.414062 C 177.1875 42.558594 177.027344 43.707031 177.40625 44.90625 C 177.652344 45.667969 178.445312 46.269531 179.234375 46.296875 Z M 179.234375 46.296875 " fill-opacity="1" fill-rule="nonzero"/><path fill="#bd6365" d="M 190.359375 36.777344 C 190.414062 37.351562 190.496094 37.921875 190.769531 38.441406 C 191.695312 40.1875 193.550781 40.570312 195.105469 39.914062 C 198.242188 38.578125 204.132812 33.421875 207.515625 33.015625 C 207.484375 32.90625 207.484375 32.851562 207.457031 32.824219 C 206.535156 31.789062 198.160156 37.542969 195.40625 38.878906 C 194.695312 39.230469 193.988281 39.535156 193.167969 39.535156 C 192.761719 39.503906 192.488281 39.339844 192.324219 38.960938 C 192.160156 38.578125 192.078125 38.167969 192.078125 37.734375 C 192.050781 36.753906 192.242188 35.824219 192.625 34.894531 C 192.921875 34.132812 193.386719 33.453125 193.796875 32.742188 C 194.097656 32.167969 194.042969 31.980469 193.46875 31.707031 C 193.304688 31.621094 193.140625 31.515625 192.980469 31.570312 C 192.679688 31.679688 192.515625 31.515625 192.296875 31.378906 C 191.480469 30.914062 190.660156 30.808594 189.84375 31.324219 C 187.878906 32.550781 186.976562 34.40625 187.035156 36.667969 C 187.035156 37.433594 187.90625 37.871094 188.613281 37.542969 C 188.886719 37.40625 189.132812 37.214844 189.324219 36.996094 C 189.625 36.722656 189.925781 36.421875 190.25 36.097656 C 190.359375 36.371094 190.335938 36.585938 190.359375 36.777344 Z M 188.832031 36.449219 C 188.640625 36.617188 188.425781 36.753906 188.125 36.96875 C 188.125 36.371094 188.230469 35.933594 188.398438 35.550781 C 188.886719 34.296875 189.597656 33.234375 190.632812 32.359375 C 190.824219 32.199219 191.070312 32.089844 191.285156 31.953125 C 191.421875 31.867188 191.617188 31.84375 191.726562 32.03125 C 191.832031 32.199219 191.941406 32.335938 191.804688 32.550781 C 190.933594 33.941406 190.089844 35.359375 188.832031 36.449219 Z M 188.832031 36.449219 " fill-opacity="1" fill-rule="nonzero"/><path fill="#bd6365" d="M 224.449219 32.496094 C 224.339844 32.496094 224.230469 32.550781 224.148438 32.578125 C 223.085938 33.097656 222.019531 33.640625 221.011719 34.242188 C 219.59375 35.117188 218.175781 35.988281 216.648438 36.722656 C 215.886719 37.078125 215.09375 37.488281 214.25 37.625 C 213.347656 37.761719 213.15625 37.566406 213.238281 36.695312 C 213.238281 36.644531 213.238281 36.558594 213.238281 36.507812 C 213.347656 35.824219 213.566406 35.195312 213.867188 34.597656 C 214.277344 33.726562 214.714844 32.878906 215.148438 32.03125 C 215.367188 31.597656 215.53125 31.160156 215.667969 30.699219 C 215.832031 30.070312 215.585938 29.578125 215.121094 29.171875 C 214.65625 28.789062 214.222656 28.949219 213.785156 29.195312 C 213.292969 29.46875 212.886719 29.824219 212.476562 30.207031 C 211.003906 31.515625 209.613281 32.90625 208.25 34.296875 C 208.003906 34.570312 207.757812 34.816406 207.320312 34.921875 C 207.351562 34.542969 207.488281 34.242188 207.625 33.941406 C 207.976562 33.152344 208.4375 32.414062 208.929688 31.707031 C 209.394531 31.105469 209.257812 30.5625 208.660156 30.179688 C 208.386719 30.015625 208.167969 30.015625 207.949219 30.230469 C 206.804688 31.351562 206.09375 32.660156 206.148438 34.324219 C 206.175781 34.84375 206.367188 35.277344 206.695312 35.660156 C 207.078125 36.097656 207.429688 36.152344 207.894531 35.796875 C 208.085938 35.660156 208.277344 35.523438 208.4375 35.359375 C 209.777344 34.023438 211.03125 32.578125 212.476562 31.351562 C 213.078125 30.832031 213.648438 30.34375 214.550781 30.042969 C 214.195312 30.914062 213.730469 31.597656 213.324219 32.277344 C 212.558594 33.589844 212.230469 34.980469 212.367188 36.449219 C 212.476562 37.703125 213.429688 38.824219 215.039062 38.25 C 215.941406 37.921875 216.8125 37.542969 217.632812 37.078125 C 219.210938 36.234375 220.683594 35.277344 222.210938 34.378906 C 223.003906 33.941406 223.765625 33.503906 224.53125 33.070312 C 224.636719 32.988281 224.832031 32.960938 224.773438 32.742188 C 224.722656 32.605469 224.613281 32.496094 224.449219 32.496094 Z M 224.449219 32.496094 " fill-opacity="1" fill-rule="nonzero"/><path fill="#bd6365" d="M 225.730469 35.222656 C 225.753906 35.167969 225.785156 35.140625 225.8125 35.085938 C 226.410156 34.488281 226.820312 33.777344 227.148438 32.988281 C 227.449219 32.277344 227.613281 31.542969 227.527344 30.75 C 227.390625 29.523438 226.410156 28.734375 225.183594 28.898438 C 224.148438 29.035156 223.304688 29.523438 222.675781 30.34375 C 222.347656 30.75 222.128906 31.214844 222.101562 31.734375 C 222.074219 32.550781 222.265625 33.316406 222.703125 33.996094 C 222.867188 34.242188 222.867188 34.40625 222.730469 34.652344 C 222.484375 35.085938 222.320312 35.550781 222.320312 36.070312 C 222.347656 36.914062 223.109375 37.351562 223.820312 36.914062 C 223.902344 36.886719 223.957031 36.832031 224.039062 36.777344 C 224.394531 36.507812 224.773438 36.234375 225.101562 35.90625 C 225.210938 35.796875 225.292969 35.742188 225.457031 35.769531 C 227.039062 36.398438 231.128906 35.304688 234.863281 32.988281 C 234.785156 32.960938 234.59375 32.824219 234.375 32.960938 C 232.519531 34.050781 229.410156 35.007812 228.894531 35.117188 C 226.765625 35.523438 225.703125 35.359375 225.703125 35.359375 C 225.730469 35.25 225.730469 35.222656 225.730469 35.222656 Z M 224.285156 35.632812 C 223.957031 35.988281 223.628906 36.3125 223.140625 36.449219 C 223.082031 36.398438 223.082031 36.34375 223.109375 36.261719 C 223.195312 35.90625 223.328125 35.550781 223.519531 35.222656 C 223.601562 35.085938 223.683594 35.058594 223.820312 35.167969 C 223.957031 35.25 224.09375 35.332031 224.257812 35.414062 C 224.339844 35.46875 224.363281 35.550781 224.285156 35.632812 Z M 224.992188 34.84375 C 224.9375 34.894531 224.910156 34.980469 224.855469 35.007812 C 224.773438 35.03125 224.773438 35.03125 224.5 34.894531 C 223.792969 34.542969 223.929688 34.597656 224.148438 34.269531 C 224.449219 33.886719 224.804688 33.558594 225.15625 33.257812 C 225.511719 32.960938 225.539062 32.90625 225.347656 32.632812 C 225.101562 32.277344 224.773438 32.199219 224.472656 32.386719 C 224.148438 32.605469 223.902344 32.851562 223.683594 33.152344 C 223.519531 33.371094 223.328125 33.613281 223.140625 33.886719 C 222.074219 32.46875 223.328125 29.769531 225.402344 29.90625 C 225.402344 29.90625 226.738281 30.070312 226.332031 32.03125 C 226.109375 33.070312 225.703125 34.050781 224.992188 34.84375 Z M 224.992188 34.84375 " fill-opacity="1" fill-rule="nonzero"/><g clip-path="url(#994845a2c2)"><g clip-path="url(#74a6265d54)"><g clip-path="url(#c4caf17b6a)"><path fill="#bd6365" d="M 251.730469 31.03125 C 251.675781 31.128906 251.683594 31.253906 251.746094 31.339844 C 251.753906 31.34375 251.757812 31.355469 251.765625 31.363281 C 251.78125 31.371094 251.792969 31.386719 251.808594 31.402344 C 251.867188 31.472656 251.921875 31.574219 251.953125 31.652344 C 251.949219 31.695312 251.941406 31.742188 251.929688 31.796875 C 251.871094 32.078125 251.613281 32.347656 251.148438 32.617188 C 250.890625 32.777344 250.566406 32.917969 250.179688 33.046875 C 249.78125 33.175781 249.300781 33.273438 248.746094 33.339844 C 247.542969 33.476562 246.398438 33.425781 245.3125 33.191406 C 244.242188 32.957031 243.144531 32.730469 242.011719 32.511719 C 241.394531 32.378906 240.765625 32.277344 240.132812 32.207031 C 239.496094 32.136719 238.824219 32.113281 238.113281 32.136719 C 236.570312 32.1875 235.40625 32.433594 234.621094 32.871094 C 234.445312 32.976562 234.28125 33.066406 234.132812 33.148438 C 234.113281 33.195312 234.09375 33.246094 234.074219 33.300781 C 234.074219 33.351562 234.078125 33.40625 234.078125 33.460938 C 234.265625 33.359375 234.472656 33.242188 234.71875 33.105469 C 235.519531 32.683594 236.640625 32.445312 238.097656 32.394531 C 239.332031 32.351562 240.492188 32.464844 241.578125 32.730469 C 242.675781 32.996094 243.785156 33.222656 244.898438 33.410156 C 245.503906 33.511719 246.125 33.582031 246.757812 33.621094 C 247.390625 33.660156 248.046875 33.636719 248.726562 33.554688 C 249.390625 33.46875 249.949219 33.351562 250.394531 33.210938 C 250.824219 33.050781 251.171875 32.882812 251.433594 32.710938 C 251.933594 32.363281 252.195312 32.019531 252.207031 31.679688 L 252.207031 31.5625 C 252.207031 31.53125 252.207031 31.503906 252.199219 31.476562 C 252.203125 31.40625 252.210938 31.339844 252.222656 31.28125 C 252.230469 31.238281 252.230469 31.191406 252.230469 31.152344 C 252.230469 31.042969 252.128906 30.929688 252.007812 30.902344 " fill-opacity="1" fill-rule="nonzero"/></g></g></g></svg>